<svg width="21" height="21" viewBox="0 0 21 21" fill="none" xmlns="http://www.w3.org/2000/svg">
<path d="M3.8647 13.614C4.82839 13.6088 5.75529 13.2617 6.46364 12.6408L13.3575 16.3872C13.2696 16.6763 13.2252 16.9758 13.2253 17.2767C13.2182 18.1259 13.5193 18.9516 14.0779 19.6146C14.6364 20.2776 15.4183 20.7374 16.2919 20.9167C17.1655 21.096 18.0774 20.9838 18.8742 20.599C19.6709 20.2141 20.3037 19.5801 20.6661 18.8038C21.0285 18.0275 21.0983 17.1562 20.8638 16.3366C20.6293 15.5171 20.1048 14.7994 19.3786 14.3043C18.6524 13.8093 17.7688 13.5671 16.8767 13.6187C15.9846 13.6702 15.1385 14.0122 14.4807 14.5872L7.58692 10.8408C7.67011 10.583 7.7146 10.3152 7.71907 10.0455L14.4917 6.36192C15.1459 6.92371 15.9835 7.25465 16.8641 7.29925C17.7446 7.34384 18.6144 7.09937 19.3278 6.60684C20.0411 6.11431 20.5545 5.40368 20.7819 4.59412C21.0093 3.78456 20.9369 2.92532 20.5768 2.16049C20.2166 1.39567 19.5907 0.771778 18.8039 0.393461C18.0171 0.0151435 17.1174 -0.0945935 16.2556 0.082654C15.3938 0.259901 14.6223 0.713353 14.0706 1.36696C13.5189 2.02057 13.2204 2.83457 13.2253 3.67247C13.229 3.97313 13.2734 4.27208 13.3575 4.56197L7.09135 7.96303C6.72828 7.42928 6.2253 6.99449 5.63185 6.7014C5.0384 6.40831 4.37491 6.267 3.70659 6.29137C3.03826 6.31574 2.38812 6.50494 1.82005 6.84038C1.25197 7.17582 0.785534 7.64596 0.466568 8.20457C0.147602 8.76319 -0.0129087 9.39107 0.000811255 10.0265C0.0145312 10.6619 0.20201 11.283 0.54482 11.8287C0.887631 12.3744 1.37397 12.826 1.95605 13.139C2.53812 13.452 3.19589 13.6157 3.8647 13.614ZM17.0797 15.707C17.4064 15.707 17.7258 15.799 17.9974 15.9715C18.2691 16.144 18.4808 16.3891 18.6058 16.676C18.7308 16.9628 18.7635 17.2784 18.6998 17.5829C18.6361 17.8874 18.4787 18.1671 18.2477 18.3866C18.0167 18.6062 17.7224 18.7557 17.4019 18.8162C17.0815 18.8768 16.7494 18.8457 16.4475 18.7269C16.1457 18.6081 15.8877 18.4069 15.7062 18.1488C15.5247 17.8906 15.4278 17.5871 15.4278 17.2767C15.4278 16.8604 15.6018 16.4611 15.9116 16.1667C16.2214 15.8723 16.6416 15.707 17.0797 15.707ZM17.0797 2.10275C17.4064 2.10275 17.7258 2.19481 17.9974 2.36729C18.2691 2.53978 18.4808 2.78493 18.6058 3.07176C18.7308 3.35859 18.7635 3.67421 18.6998 3.9787C18.6361 4.2832 18.4787 4.5629 18.2477 4.78242C18.0167 5.00195 17.7224 5.15145 17.4019 5.21202C17.0815 5.27259 16.7494 5.2415 16.4475 5.1227C16.1457 5.00389 15.8877 4.80269 15.7062 4.54455C15.5247 4.28642 15.4278 3.98293 15.4278 3.67247C15.4278 3.25615 15.6018 2.85689 15.9116 2.56251C16.2214 2.26813 16.6416 2.10275 17.0797 2.10275ZM3.8647 8.38162C4.19141 8.38162 4.51078 8.47368 4.78243 8.64616C5.05408 8.81864 5.2658 9.0638 5.39083 9.35063C5.51586 9.63746 5.54857 9.95308 5.48483 10.2576C5.42109 10.5621 5.26377 10.8418 5.03275 11.0613C4.80173 11.2808 4.50739 11.4303 4.18696 11.4909C3.86653 11.5515 3.53439 11.5204 3.23255 11.4016C2.93071 11.2828 2.67273 11.0816 2.49122 10.8234C2.30971 10.5653 2.21283 10.2618 2.21283 9.95133C2.21283 9.53502 2.38686 9.13576 2.69665 8.84138C3.00643 8.547 3.42659 8.38162 3.8647 8.38162Z" fill="white"/>
</svg>
